<svg width="1600" height="693" viewBox="0 0 1600 693" fill="none" xmlns="http://www.w3.org/2000/svg">
<path d="M1434.62 427.557C1401.27 428.489 1366.59 440.608 1336.11 454.993L1336.11 454.993C1326.14 459.723 1317.83 467.87 1310.01 476.892C1307.02 480.338 1304.11 483.903 1301.21 487.461C1296.48 493.253 1291.77 499.024 1286.77 504.225L1286.49 504.518L1286.72 504.853C1287.62 506.186 1288.52 507.523 1289.42 508.856C1290.92 511.09 1292.42 513.317 1293.94 515.512L1294.09 515.727H1294.35H2143.27V689.711H1065.22C1051.71 550.803 1081.02 448.97 1142.28 379.986C1203.61 310.922 1297.04 274.697 1411.86 267.23C1506.32 261.102 1601.2 262.073 1696.12 263.045C1741.86 263.513 1787.61 263.981 1833.32 263.655C1858.22 263.512 1883.27 262.01 1907.96 258.861C1920.11 257.346 1929.75 252.108 1935.59 244.437C1941.43 236.758 1943.41 226.69 1940.34 215.612C1938.27 208.109 1933.32 200.335 1927.1 193.656C1920.88 186.975 1913.35 181.352 1906.09 178.173L1906.09 178.173C1897.79 174.562 1888.39 173.216 1878.72 172.768C1872.25 172.469 1865.63 172.57 1859.13 172.67C1855.92 172.719 1852.74 172.768 1849.62 172.768C1670.03 172.553 1490.43 172.58 1310.86 172.607C1251.01 172.616 1191.17 172.625 1131.33 172.625H1131.25H1131.17H1131.08H1131H1130.92H1130.84H1130.75H1130.67H1130.59H1130.51H1130.42H1130.34H1130.26H1130.18H1130.09H1130.01H1129.93H1129.85H1129.76H1129.68H1129.6H1129.52H1129.43H1129.35H1129.27H1129.18H1129.1H1129.02H1128.94H1128.85H1128.77H1128.69H1128.61H1128.52H1128.44H1128.36H1128.27H1128.19H1128.11H1128.03H1127.94H1127.86H1127.78H1127.69H1127.61H1127.53H1127.45H1127.36H1127.28H1127.2H1127.11H1127.03H1126.95H1126.86H1126.78H1126.7H1126.61H1126.53H1126.45H1126.37H1126.28H1126.2H1126.12H1126.03H1125.95H1125.87H1125.78H1125.7H1125.61H1125.53H1125.45H1125.36H1125.28H1125.2H1125.11H1125.03H1124.95H1124.86H1124.78H1124.7H1124.61H1124.53H1124.44H1124.36H1124.28H1124.19H1124.11H1124.02H1123.94H1123.86H1123.77H1123.69H1123.6H1123.52H1123.44H1123.35H1123.27H1123.18H1123.1H1123.01H1122.93H1122.85H1122.76H1122.68H1122.59H1122.51H1122.42H1122.34H1122.25H1122.17H1122.08H1122H1121.91H1121.83H1121.74H1121.66H1121.57H1121.49H1121.4H1121.32H1121.23H1121.15H1121.06H1120.98H1120.89H1120.81H1120.72H1120.64H1120.55H1120.47H1120.38H1120.29H1120.21H1120.12H1120.04H1119.95H1119.86H1119.78H1119.69H1119.61H1119.52H1119.43H1119.35H1119.26H1119.18H1119.09H1119H1118.92H1118.83H1118.74H1118.66H1118.57H1118.48H1118.4H1118.31H1118.22H1118.14H1118.05H1117.96H1117.87H1117.79H1117.7H1117.61H1117.53H1117.44H1117.35H1117.26H1117.18H1117.09H1117H1116.91H1116.83H1116.74H1116.65H1116.56H1116.47H1116.39H1116.3H1116.21H1116.12H1116.03H1115.94H1115.86H1115.77H1115.68H1115.59H1115.5H1115.41H1115.32H1115.23H1115.15H1115.06H1114.97H1114.88H1114.79H1114.7H1114.61H1114.52H1114.43H1114.34H1114.25H1114.16H1114.07H1113.98H1113.89H1113.8H1113.71H1113.62H1113.53H1113.44H1113.35H1113.26H1113.17H1113.08H1112.99H1112.9H1112.81H1112.72H1112.63H1112.53H1112.44H1112.35H1112.26H1112.17H1112.08H1111.99H1111.89H1111.8H1111.71H1111.62H1111.53H1111.44H1111.34H1111.25H1111.16H1111.07H1110.97H1110.88H1110.79H1110.7H1110.6H1110.51H1110.42H1110.33H1110.23H1110.14H1110.05H1109.95H1109.86H1109.77H1109.67H1109.58H1109.48H1109.39H1109.3H1109.2H1109.11H1109.01H1108.92H1108.83H1108.73H1108.64H1108.54H1108.45H1108.35H1108.26H1108.16H1108.07H1107.97H1107.88H1107.78H1107.69H1107.59H1107.5H1107.4H1107.3H1107.21H1107.11H1107.02H1106.92H1106.82H1106.73H1106.63H1106.53H1106.44H1106.34H1106.24H1106.15H1106.05H1105.95H1105.85H1105.76H1105.66H1105.56H1105.46H1105.37H1105.27H1105.17H1105.07H1104.97H1104.88H1104.78H1104.68H1104.58H1104.48H1104.38H1104.28H1104.18H1104.09H1103.99H1103.89H1103.79H1103.69H1103.59H1103.49H1103.39H1103.29H1103.19H1103.09H1102.99H1102.89H1102.79H1102.69H1102.59H1102.48H1102.38H1102.28H1102.18H1102.08H1101.98H1101.88H1101.77H1101.67H1101.57H1101.47H1101.37H1101.26H1101.16H1101.06H1100.96H1100.85H1100.75H1100.65H1100.55H1100.44H1100.34H1100.24H1100.13H1100.03H1099.92H1099.82H1099.72H1099.61H1099.51H1099.4H1099.3H1099.19H1099.09H1098.98H1098.88H1098.77H1098.67H1098.56H1098.46H1098.35H1098.25H1098.14H1098.04H1097.93H1097.82H1097.72H1097.61H1097.5H1097.4H1097.29H1097.18H1097.08H1096.97H1096.86H1096.75H1096.65H1096.54H1096.43H1096.32H1096.21H1096.11H1096H1095.89H1095.78H1095.67H1095.56H1095.45H1095.34H1095.23H1095.12H1095.01H1094.9H1094.79H1094.68H1094.57H1094.46H1094.35H1094.24H1094.13H1094.02H1093.91H1093.8H1093.69H1093.58H1093.46H1093.35H1093.24H1093.13H1093.02H1092.9H1092.79H1092.68H1092.57H1092.45H1092.34H1092.23H1092.11H1092H1091.89H1091.77H1091.66H1091.55H1091.43H1091.32H1091.2H1091.09H1090.97H1090.86H1090.74H1090.63H1090.51H1090.4H1090.28H1090.17H1090.05H1089.93H1089.82H1089.7H1089.58H1089.47H1089.35H1089.23H1089.12H1089H1088.88H1088.76H1088.65H1088.53H1088.41H1088.29H1088.17H1088.05H1087.94H1087.82H1087.7H1087.58H1087.46H1087.34H1087.22H1087.1H1086.98H1086.86H1086.74H1086.62H1086.5H1086.38H1086.26H1086.14H1086.01H1085.89H1085.77H1085.65H1085.53H1085.41H1085.28H1085.16H1085.04H1084.92H1084.79H1084.67H1084.55H1084.42H1084.3H1084.18H1084.05H1083.93H1083.8H1083.68H1083.55H1083.43H1083.3H1083.18H1083.05H1082.93H1082.8H1082.68H1082.55H1082.43H1082.3H1082.17H1082.05H1081.92H1081.79H1081.78V0.5H1082.9H1084.52H1086.14H1087.76H1089.38H1091H1092.62H1094.24H1095.86H1097.47H1099.09H1100.71H1102.33H1103.95H1105.57H1107.19H1108.81H1110.43H1112.05H1113.67H1115.29H1116.91H1118.53H1120.14H1121.76H1123.38H1125H1126.62H1128.24H1129.86H1131.48H1133.1H1134.72H1136.34H1137.96H1139.58H1141.2H1142.81H1144.43H1146.05H1147.67H1149.29H1150.91H1152.53H1154.15H1155.77H1157.39H1159.01H1160.63H1162.25H1163.87H1165.49H1167.11H1168.72H1170.34H1171.96H1173.58H1175.2H1176.82H1178.44H1180.06H1181.68H1183.3H1184.92H1186.54H1188.16H1189.78H1191.4H1193.02H1194.64H1196.25H1197.87H1199.49H1201.11H1202.73H1204.35H1205.97H1207.59H1209.21H1210.83H1212.45H1214.07H1215.69H1217.31H1218.93H1220.55H1222.17H1223.79H1225.41H1227.02H1228.64H1230.26H1231.88H1233.5H1235.12H1236.74H1238.36H1239.98H1241.6H1243.22H1244.84H1246.46H1248.08H1249.7H1251.32H1252.94H1254.56H1256.18H1257.8H1259.41H1261.03H1262.65H1264.27H1265.89H1267.51H1269.13H1270.75H1272.37H1273.99H1275.61H1277.23H1278.85H1280.47H1282.09H1283.71H1285.33H1286.95H1288.57H1290.19H1291.81H1293.43H1295.04H1296.66H1298.28H1299.9H1301.52H1303.14H1304.76H1306.38H1308H1309.62H1311.24H1312.86H1314.48H1316.1H1317.72H1319.34H1320.96H1322.58H1324.2H1325.82H1327.44H1329.06H1330.68H1332.3H1333.92H1335.53H1337.15H1338.77H1340.39H1342.01H1343.63H1345.25H1346.87H1348.49H1350.11H1351.73H1353.35H1354.97H1356.59H1358.21H1359.83H1361.45H1363.07H1364.69H1366.31H1367.93H1369.55H1371.17H1372.79H1374.41H1376.03H1377.65H1379.27H1380.89H1382.5H1384.12H1385.74H1387.36H1388.98H1390.6H1392.22H1393.84H1395.46H1397.08H1398.7H1400.32H1401.94H1403.56H1405.18H1406.8H1408.42H1410.04H1411.66H1413.28H1414.9H1416.52H1418.14H1419.76H1421.38H1423H1424.62H1426.24H1427.86H1429.48H1431.1H1432.72H1434.33H1435.95H1437.57H1439.19H1440.81H1442.43H1444.05H1445.67H1447.29H1448.91H1450.53H1452.15H1453.77H1455.39H1457.01H1458.63H1460.25H1461.87H1463.49H1465.11H1466.73H1468.35H1469.97H1471.59H1473.21H1474.83H1476.45H1478.07H1479.69H1481.31H1482.93H1484.55H1486.17H1487.79H1489.41H1491.03H1492.65H1494.26H1495.88H1497.5H1499.12H1500.74H1502.36H1503.98H1505.6H1507.22H1508.84H1510.46H1512.08H1513.7H1515.32H1516.94H1518.56H1520.18H1521.8H1523.42H1525.04H1526.66H1528.28H1529.9H1531.52H1533.14H1534.76H1536.38H1538H1539.62H1541.24H1542.86H1544.48H1546.1H1547.72H1549.34H1550.96H1552.58H1554.2H1555.82H1557.44H1559.06H1560.68H1562.3H1563.91H1565.53H1567.15H1568.77H1570.39H1572.01H1573.63H1575.25H1576.87H1578.49H1580.11H1581.73H1583.35H1584.97H1586.59H1588.21H1589.83H1591.45H1593.07H1594.69H1596.31H1597.93H1599.55H1601.17H1602.79H1604.41H1606.03H1607.65H1609.27H1610.89H1612.51H1614.13H1615.75H1617.37H1618.99H1620.61H1622.23H1623.85H1625.47H1627.09H1628.71H1630.33H1631.95H1633.57H1635.19H1636.81H1638.42H1640.04H1641.66H1643.28H1644.9H1646.52H1648.14H1649.76H1651.38H1653H1654.62H1656.24H1657.86H1659.48H1661.1H1662.72H1664.34H1665.96H1667.58H1669.2H1670.82H1672.44H1674.06H1675.68H1677.3H1678.92H1680.54H1682.16H1683.78H1685.4H1687.02H1688.64H1690.26H1691.88H1693.5H1695.12H1696.74H1698.36H1699.98H1701.6H1703.22H1704.84H1706.46H1708.08H1709.7H1711.32H1712.93H1714.55H1716.17H1717.79H1719.41H1721.03H1722.65H1724.27H1725.89H1727.51H1729.13H1730.75H1732.37H1733.99H1735.61H1737.23H1738.85H1740.47H1742.09H1743.71H1745.33H1746.95H1748.57H1750.19H1751.81H1753.43H1755.05H1756.67H1758.29H1759.91H1761.53H1763.15H1764.77H1766.39H1768.01H1769.63H1771.25H1772.87H1774.49H1776.11H1777.73H1779.35H1780.96H1782.58H1784.2H1785.82H1787.44H1789.06H1790.68H1792.3H1793.92H1795.54H1797.16H1798.78H1800.4H1802.02H1803.64H1805.26H1806.88H1808.5H1810.12H1811.74H1813.36H1814.98H1816.6H1818.22H1819.84H1821.46H1823.08H1824.7H1826.32H1827.94H1829.56H1831.18H1832.8H1834.42H1836.04H1837.66H1839.28H1840.89H1842.51H1844.13H1845.75H1847.37H1848.99H1850.61H1852.23H1853.85H1855.47H1857.09H1858.71H1860.33H1861.95H1863.57H1865.19H1866.81H1868.43H1870.05H1871.67H1873.29H1874.91H1876.53H1878.15H1879.77H1881.39H1883.01H1884.63H1886.25H1887.87H1889.49H1891.11H1892.72H1894.34H1895.96H1897.58H1899.2H1900.82H1902.44H1904.06H1905.68H1907.3H1908.92H1910.47C1921.91 3.59397 1933.45 6.39054 1944.98 9.1853C1970.24 15.3099 1995.47 21.4259 2019.54 30.644L2019.72 30.1771L2019.54 30.6441C2066.52 48.6033 2100.39 73.0964 2122.45 104.77C2144.51 136.443 2154.79 175.343 2154.5 222.177C2154.29 258.74 2145.16 289.447 2128.33 315.236C2111.5 341.029 2086.96 361.93 2055.88 378.848C1993.56 412.759 1925.94 422.265 1856.13 422.766L1856.13 423.194L1856.13 422.766C1821.86 423.027 1787.59 423.204 1753.31 423.38C1647.07 423.928 1540.8 424.475 1434.62 427.557ZM1434.62 427.557L1434.64 428.057L1434.62 427.557C1434.62 427.557 1434.62 427.557 1434.62 427.557Z" stroke="#FF3998"/>
<path d="M-527.33 177.294C-536.727 177.616 -546.119 177.938 -555.5 178.189V0.5H-554.492H-552.984H-551.475H-549.967H-548.459H-546.951H-545.443H-543.934H-542.426H-540.918H-539.41H-537.902H-536.393H-534.885H-533.377H-531.869H-530.361H-528.853H-527.344H-525.836H-524.328H-522.82H-521.312H-519.804H-518.295H-516.787H-515.279H-513.771H-512.263H-510.755H-509.246H-507.738H-506.23H-504.722H-503.214H-501.706H-500.197H-498.689H-497.181H-495.673H-494.165H-492.657H-491.149H-489.64H-488.132H-486.624H-485.116H-483.608H-482.1H-480.592H-479.083H-477.575H-476.067H-474.559H-473.051H-471.543H-470.035H-468.527H-467.018H-465.51H-464.002H-462.494H-460.986H-459.478H-457.97H-456.462H-454.954H-453.445H-451.937H-450.429H-448.921H-447.413H-445.905H-444.397H-442.889H-441.381H-439.872H-438.364H-436.856H-435.348H-433.84H-432.332H-430.824H-429.316H-427.808H-426.3H-424.792H-423.283H-421.775H-420.267H-418.759H-417.251H-415.743H-414.235H-412.727H-411.219H-409.711H-408.203H-406.695H-405.186H-403.678H-402.17H-400.662H-399.154H-397.646H-396.138H-394.63H-393.122H-391.614H-390.106H-388.598H-387.09H-385.582H-384.074H-382.565H-381.057H-379.549H-378.041H-376.533H-375.025H-373.517H-372.009H-370.501H-368.993H-367.485H-365.977H-364.469H-362.961H-361.453H-359.945H-358.437H-356.929H-355.421H-353.912H-352.404H-350.896H-349.388H-347.88H-346.372H-344.864H-343.356H-341.848H-340.34H-338.832H-337.324H-335.816H-334.308H-332.8H-331.292H-329.784H-328.276H-326.768H-325.26H-323.752H-322.244H-320.736H-319.228H-317.72H-316.212H-314.704H-313.196H-311.688H-310.179H-308.671H-307.163H-305.655H-304.147H-302.639H-301.131H-299.623H-298.115H-296.607H-295.099H-293.591H-292.083H-290.575H-289.067H-287.559H-286.051H-284.543H-283.035H-281.527H-280.019H-278.511H-277.003H-275.495H-273.987H-272.479H-270.971H-269.463H-267.955H-266.447H-264.939H-263.431H-261.923H-260.415H-258.907H-257.399H-255.891H-254.383H-252.875H-251.367H-249.859H-248.351H-246.843H-245.335H-243.827H-242.319H-240.811H-239.303H-237.795H-236.287H-234.779H-233.271H-231.763H-230.255H-228.747H-227.239H-225.731H-224.223H-222.715H-221.207H-219.699H-218.191H-216.683H-215.175H-213.667H-212.159H-210.651H-209.143H-207.635H-206.127H-204.619H-203.111H-201.603H-200.095H-198.587H-197.079H-195.571H-194.063H-192.555H-191.047H-189.539H-188.031H-186.523H-185.015H-183.507H-181.999H-180.491H-178.983H-177.475H-175.967H-174.459H-172.951H-171.443H-169.935H-168.427H-166.919H-165.411H-163.903H-162.395H-160.887H-159.379H-157.871H-156.363H-154.855H-153.347H-151.839H-150.331H-148.823H-147.315H-145.807H-144.299H-142.791H-141.283H-139.775H-138.267H-136.759H-135.251H-133.743H-132.235H-130.727H-129.219H-127.711H-126.203H-124.695H-123.187H-121.679H-120.171H-118.663H-117.155H-115.647H-114.139H-112.631H-111.123H-109.615H-108.107H-106.599H-105.091H-103.583H-102.075H-100.567H-99.0589H-97.5509H-96.0429H-94.5349H-93.0269H-91.5189H-90.0109H-88.5029H-86.9949H-85.4869H-83.9789H-82.4709H-80.9629H-79.4549H-77.9468H-76.4388H-74.9308H-73.4228H-71.9148H-70.4068H-68.8988H-67.3908H-65.8828H-64.3748H-62.8667H-61.3587H-59.8507H-58.3427H-56.8347H-55.3267H-53.8187H-52.3106H-50.8026H-49.2946H-47.7866H-46.2786H-44.7705H-43.2625H-41.7545H-40.2465H-38.7385H-37.2305H-35.7224H-34.2144H-32.7064H-31.1984H-29.6903H-28.1823H-26.6743H-25.1663H-23.6582H-22.1502H-20.6422H-19.1342H-17.6261H-16.1181H-14.61H-13.1021H-11.594H-10.0859H-8.57794H-7.06989H-5.56183H-4.05383H-2.54578H-1.03772H0.470276H1.97833H3.48639H4.99438H6.50244H8.0105H9.51855H11.0266H12.5346H14.0427H15.5507H17.0588H18.5668H20.0748H21.5829H23.0909H24.599H26.1071H27.6151H29.1232H30.6312H32.1393H33.6473H35.1553H36.6634H38.1714H39.6795H41.1876H42.6957H44.2037H45.7118H47.2198H48.7279H50.236H51.744H53.2521H54.7602H56.2682H57.7763H59.2844H60.7924H62.3005H63.8086H65.3167H66.8248H68.3328H69.8409H71.349H72.8571H74.3651H75.8732H77.3813H78.8894H80.3975H81.9056H83.4136H84.9218H86.4298H87.9379H89.446H90.9541H92.4622H93.9703H95.4784H96.9865H98.4946H100.003H101.511H103.019H104.527H106.035H107.543H109.051H110.559H112.068H113.576H115.084H116.592H118.1H119.608H121.116H122.624H124.132H125.641H127.149H128.657H130.165H131.673H133.181H134.689H136.197H137.706H139.214H140.722H142.23H143.738H145.246H146.754H148.262H149.771H151.279H152.787H154.295H155.803H157.311H158.819H160.328H161.836H163.344H164.852H166.36H167.868H169.377H170.885H172.393H173.901H175.409H176.917H178.426H179.934H181.442H182.95H184.458H185.966H187.475H188.983H190.491H191.999H193.507H195.015H196.524H198.032H199.54H201.048H202.556H204.065H205.573H207.081H208.589H210.097H211.606H213.114H214.622H216.067C230.865 4.2832 245.797 7.66008 260.721 11.035C293.214 18.3831 325.666 25.7218 356.597 37.2246C417.836 60.0452 466.375 93.8199 501.139 138.179C535.901 182.537 556.91 237.506 563.052 302.747L563.516 302.703L563.052 302.747C574.982 429.14 546.477 542.769 434.211 619.075L434.492 619.488L434.21 619.075C350.46 676.058 253.91 690.712 155.209 691.284C-14.1482 692.255 -183.468 692.313 -352.806 692.372C-420.367 692.395 -487.93 692.418 -555.5 692.499V264.871H-334.707V514.44V514.94H-334.207C-295.056 514.94 -256.154 514.948 -217.446 514.955C-82.8179 514.979 49.4751 515.004 181.811 514.726C192.143 514.726 202.529 512.683 212.795 510.664C215.447 510.143 218.092 509.623 220.725 509.14C265.458 500.937 299.731 483.178 323.043 456.363C346.356 429.546 358.663 393.723 359.559 349.478C360.526 303.666 349.943 266.624 327.677 238.709C305.411 210.794 271.509 192.066 225.954 182.789L225.854 183.279L225.954 182.789C200.525 177.631 173.891 176.129 147.849 176.057C-57.0716 175.557 -261.992 175.7 -466.911 175.914C-487.032 175.914 -507.192 176.605 -527.33 177.294Z" stroke="#FF3998"/>
<path d="M930.56 0.5V169.121H695.61V0.5H930.56Z" stroke="#FF3998"/>
<path d="M925.412 689.711H696.11V266.158H925.412V689.711Z" stroke="#FF3998"/>
</svg>
