<svg width="118" height="26" viewBox="0 0 118 26" fill="none" xmlns="http://www.w3.org/2000/svg">
<path d="M0 5.42216L4.62745 0.601898L118 0.601898V18.7261C116.089 20.5279 113.741 23.4068 111.83 25.2085H0V5.42216Z" fill="white"/>
<path fill-rule="evenodd" clip-rule="evenodd" d="M74.6234 10.2653V14.0585H68.7777V10.2281C68.7777 9.18017 69.6701 8.76511 70.0175 8.76511H73.0931C73.828 8.76511 74.6234 9.36075 74.6234 10.2653ZM100.819 8.71443H102.943C103.791 8.70635 104.485 9.31224 104.485 10.0734V15.604C104.484 15.7841 104.445 15.9623 104.368 16.1286C104.291 16.2948 104.178 16.4458 104.036 16.5729C103.895 16.7 103.726 16.8007 103.541 16.8693C103.356 16.9379 103.158 16.973 102.958 16.9726H100.834C100.43 16.9731 100.042 16.8291 99.7561 16.5725C99.47 16.3159 99.3089 15.9675 99.3081 15.604V10.0928C99.3082 9.7305 99.4668 9.38283 99.7494 9.1249C100.032 8.86698 100.416 8.71953 100.819 8.71443ZM64.9211 10.0432V18.9213H68.6292V16.2929H74.5767V18.9245H78.3901V10.1057C78.3446 7.88646 76.9359 6.6887 74.9893 6.6887H67.9506C65.9387 6.68816 64.9211 8.25517 64.9211 10.0432ZM108.277 16.0595V9.53917C108.278 9.16493 108.196 8.79426 108.037 8.44838C107.879 8.1025 107.646 7.78818 107.352 7.5234C107.058 7.25861 106.709 7.04856 106.325 6.90524C105.941 6.76192 105.529 6.68816 105.113 6.68816H98.7116C96.9591 6.68816 95.5378 7.96301 95.5378 9.53486V16.0783C95.5378 17.6502 96.9591 18.9245 98.7116 18.9245L98.7236 18.9137H105.112C105.951 18.9098 106.755 18.6076 107.347 18.073C107.94 17.5385 108.274 16.8148 108.277 16.0595ZM9.49878 14.0655L9.66708 14.0672H14.7401C15.5547 14.0672 16.0638 14.6714 16.1806 15.2725C16.3357 16.0762 15.8499 16.8621 14.697 16.8621H6.95149V18.9191H14.9342L16.71 18.9202C16.9502 18.9197 17.4863 18.8016 17.7791 18.6771C19.0339 18.1413 19.5448 16.9618 19.5849 15.86C19.5957 15.5075 19.5975 15.2094 19.5921 14.8569C19.5586 12.3702 18.78 11.4016 15.8014 11.4016H11.4244C10.3259 11.3789 10.0546 10.5693 10.0798 9.89549C10.1277 8.59638 11.3046 8.76241 12.5168 8.76241H19.2316V6.69625H9.42391C9.16996 6.69463 8.68302 6.76309 8.45542 6.83801C7.16291 7.2644 6.6041 8.59746 6.549 10.1187C6.48192 11.9832 7.23359 13.9912 9.49878 14.0655ZM89.5304 10.807V18.9245H93.3828V10.0561C93.3828 7.96085 92.0502 6.68169 89.6789 6.68169H80.6152V18.9245H84.3232V8.75163H87.9306C89.2609 8.75163 89.5304 9.84859 89.5304 10.807ZM57.1625 8.68263C57.9782 8.80392 58.9162 8.90957 58.9162 10.3844V18.9245H62.6595V10.5386C62.6176 8.75756 62.7146 6.82346 59.5516 6.68816H45.0423V18.9175H48.8168V8.70473H52.014V18.9245H55.6879V8.68263H57.1625ZM38.0275 6.68493V18.9245H41.9997V6.68493H38.0275ZM25.6618 6.69355H21.9232V18.9434H25.6618V16.2083H31.2697V18.9245H35.0083V6.67792H31.2697V13.879H25.6618V6.69355ZM110.498 9.12842C110.348 9.12846 110.2 9.10204 110.063 9.05067C109.925 8.9993 109.799 8.92399 109.694 8.82903C109.588 8.73408 109.505 8.62134 109.447 8.49726C109.39 8.37317 109.361 8.24017 109.361 8.10585C109.361 7.97153 109.39 7.83852 109.447 7.71441C109.504 7.5903 109.588 7.47752 109.693 7.38252C109.799 7.28751 109.924 7.21214 110.062 7.1607C110.2 7.10927 110.348 7.08278 110.497 7.08274C110.798 7.08267 111.087 7.19036 111.301 7.38213C111.514 7.5739 111.634 7.83404 111.634 8.10531C111.634 8.37659 111.514 8.63678 111.301 8.82865C111.088 9.02052 110.799 9.12835 110.498 9.12842ZM110.159 8.02014V7.6385H110.571C110.765 7.6385 110.803 7.75008 110.803 7.82555C110.803 7.96624 110.719 8.02014 110.547 8.02014H110.159ZM110.498 9.28474C110.845 9.28474 111.178 9.16049 111.424 8.9393C111.67 8.71811 111.808 8.41812 111.808 8.10531C111.808 7.79251 111.67 7.49251 111.424 7.27133C111.178 7.05014 110.845 6.92588 110.498 6.92588C110.15 6.92588 109.817 7.05014 109.571 7.27133C109.325 7.49251 109.187 7.79251 109.187 8.10531C109.187 8.41812 109.325 8.71811 109.571 8.9393C109.817 9.16049 110.15 9.28474 110.498 9.28474ZM109.833 8.81901H110.159V8.26056H110.5C110.745 8.26056 110.759 8.33603 110.759 8.53062C110.759 8.67724 110.772 8.75109 110.795 8.81847H111.161V8.78074C111.091 8.75702 111.091 8.70527 111.091 8.49666C111.091 8.23037 111.02 8.18671 110.89 8.13496C111.047 8.08753 111.134 7.95222 111.134 7.79536C111.134 7.67192 111.057 7.39161 110.636 7.39161H109.833V8.81901Z" fill="#469CDD"/>
</svg>
